<?xml version="1.0" encoding="UTF-8" standalone="no"?>
<!-- Created with Inkscape (http://www.inkscape.org/) -->

<svg
   width="162.98334mm"
   height="205.84586mm"
   viewBox="0 0 162.98334 205.84585"
   version="1.1"
   id="svg1"
   xmlns="http://www.w3.org/2000/svg"
   xmlns:svg="http://www.w3.org/2000/svg">
  <defs
     id="defs1">
    <linearGradient
       id="swatch16">
      <stop
         style="stop-color:#ffc900;stop-opacity:1;"
         offset="0"
         id="stop16" />
    </linearGradient>
  </defs>
  <g
     id="layer1"
     transform="translate(76.272997,-303.32549)">
    <path
       style="color:#000000;font-style:normal;font-variant:normal;font-weight:normal;font-stretch:normal;font-size:medium;line-height:normal;font-family:sans-serif;font-variant-ligatures:normal;font-variant-position:normal;font-variant-caps:normal;font-variant-numeric:normal;font-variant-alternates:normal;font-variant-east-asian:normal;font-feature-settings:normal;font-variation-settings:normal;text-indent:0;text-align:start;text-decoration-line:none;text-decoration-style:solid;text-decoration-color:#000000;letter-spacing:normal;word-spacing:normal;text-transform:none;writing-mode:lr-tb;direction:ltr;text-orientation:mixed;dominant-baseline:auto;baseline-shift:baseline;text-anchor:start;white-space:normal;shape-padding:0;shape-margin:0;inline-size:0;clip-rule:nonzero;display:inline;overflow:visible;visibility:visible;isolation:auto;mix-blend-mode:normal;color-interpolation:sRGB;color-interpolation-filters:linearRGB;solid-color:#000000;solid-opacity:1;vector-effect:none;fill:#000000;fill-rule:nonzero;stroke:none;stroke-width:0.670626;stroke-linecap:butt;stroke-linejoin:miter;stroke-miterlimit:4;stroke-dasharray:none;stroke-dashoffset:0;stroke-opacity:1;-inkscape-stroke:none;color-rendering:auto;image-rendering:auto;shape-rendering:auto;text-rendering:auto;enable-background:accumulate;stop-color:#000000"
       d="m 34.267867,462.37628 -4.270094,28.81402 c 0,0 17.696598,-28.83914 23.237991,-46.1611 0,0 -3.854015,34.17419 -3.664498,33.85495 18.495994,-29.65528 30.602532,-66.64135 30.737175,-100.44984 0.134533,-33.8085 -30.867577,-69.86766 -75.289828,-70.0312 -44.422251,-0.16347 -75.262701,35.50579 -74.886739,70.11773 0.375962,34.61193 12.241181,70.79454 30.737176,100.44982 0.189538,0.31926 -3.664499,-33.85495 -3.664499,-33.85495 5.541394,17.32196 23.237991,46.1611 23.237991,46.1611 l -4.270094,-28.81402 C -13.191528,482.06608 -9.2515353,487.85361 5.2201467,504.0943 19.691851,487.7671 23.631843,481.97957 34.267867,462.37628 Z"
       id="path15-5-8" />
    <ellipse
       style="fill:#ffc900;fill-opacity:1;stroke:none;stroke-width:0.392879;stroke-dasharray:none;stroke-opacity:1"
       id="path16-65"
       cx="5.220108"
       cy="381.15845"
       rx="54.490948"
       ry="51.294548" />
    <path
       style="fill:#000000;fill-opacity:1;stroke:none;stroke-width:0.146673;stroke-dasharray:none;stroke-opacity:1"
       d="m -12.015417,411.98244 c -8.441995,-0.17717 -14.496711,-5.92473 -20.738823,-17.31197 13.703301,3.95894 14.672222,-4.86425 26.2592082,-7.33031 9.1120951,-1.9393 11.7152006,6.39452 11.7152006,6.39452 0,0 2.6030834,-8.33382 11.7151782,-6.39452 11.587009,2.46606 12.555908,11.28925 26.259208,7.33031 -6.242111,11.38724 -12.296805,17.13494 -20.7388,17.31197 -9.278704,0.19462 -15.7409273,-7.22247 -17.2355862,-9.82571 -1.4946588,2.60324 -7.9569046,10.02029 -17.2355858,9.82571 z"
       id="path17-0" />
    <ellipse
       style="fill:#000000;fill-opacity:1;stroke:none;stroke-width:0.241005;stroke-dasharray:none;stroke-opacity:1"
       id="path18-2"
       cx="23.613365"
       cy="367.35229"
       rx="9.1584044"
       ry="9.0787649" />
    <ellipse
       style="fill:#000000;fill-opacity:1;stroke:none;stroke-width:0.382737;stroke-dasharray:none;stroke-opacity:1"
       id="path18-6-8"
       cx="191.08743"
       cy="-313.94363"
       rx="16.636835"
       ry="12.604523"
       transform="rotate(150.43147)" />
    <rect
       style="fill:#000000;fill-opacity:1;stroke:none;stroke-width:0.243027;stroke-dasharray:none;stroke-opacity:1"
       id="rect19-60"
       width="112.40722"
       height="8.3117685"
       x="-256.64233"
       y="299.75372"
       transform="rotate(-32.385506)" />
  </g>
</svg>
