<?xml version="1.0" encoding="UTF-8" standalone="no"?>
<!-- Created with Inkscape (http://www.inkscape.org/) -->

<svg
   width="575.76746mm"
   height="100.17368mm"
   viewBox="0 0 575.76745 100.17368"
   version="1.1"
   id="svg1"
   xmlns="http://www.w3.org/2000/svg"
   xmlns:svg="http://www.w3.org/2000/svg">
  <defs
     id="defs1">
    <linearGradient
       id="swatch16">
      <stop
         style="stop-color:#ffc900;stop-opacity:1;"
         offset="0"
         id="stop16" />
    </linearGradient>
  </defs>
  <g
     id="layer1"
     transform="translate(78.918825,-49.325478)">
    <path
       style="color:#000000;font-style:normal;font-variant:normal;font-weight:normal;font-stretch:normal;font-size:medium;line-height:normal;font-family:sans-serif;font-variant-ligatures:normal;font-variant-position:normal;font-variant-caps:normal;font-variant-numeric:normal;font-variant-alternates:normal;font-variant-east-asian:normal;font-feature-settings:normal;font-variation-settings:normal;text-indent:0;text-align:start;text-decoration-line:none;text-decoration-style:solid;text-decoration-color:#000000;letter-spacing:normal;word-spacing:normal;text-transform:none;writing-mode:lr-tb;direction:ltr;text-orientation:mixed;dominant-baseline:auto;baseline-shift:baseline;text-anchor:start;white-space:normal;shape-padding:0;shape-margin:0;inline-size:0;clip-rule:nonzero;display:inline;overflow:visible;visibility:visible;isolation:auto;mix-blend-mode:normal;color-interpolation:sRGB;color-interpolation-filters:linearRGB;solid-color:#000000;solid-opacity:1;vector-effect:none;fill:#000000;fill-rule:nonzero;stroke:none;stroke-width:0.303578;stroke-linecap:butt;stroke-linejoin:miter;stroke-miterlimit:4;stroke-dasharray:none;stroke-dashoffset:0;stroke-opacity:1;-inkscape-stroke:none;color-rendering:auto;image-rendering:auto;shape-rendering:auto;text-rendering:auto;enable-background:accumulate;stop-color:#000000"
       d="m -23.644576,124.8202 -1.93298,13.04349 c 0,0 8.01087,-13.05486 10.51934,-20.89614 0,0 -1.74463,15.46992 -1.65884,15.32541 8.3727403,-13.42431 13.8531103,-30.16711 13.9140603,-45.471494 0.0609,-15.304382 -13.9730903,-31.62759 -34.0820903,-31.701622 -20.109,-0.07403 -34.06981,16.072713 -33.89962,31.740791 0.17019,15.668085 5.54132,32.047175 13.91406,45.471485 0.0858,0.14452 -1.65884,-15.32541 -1.65884,-15.32541 2.50847,7.84128 10.51934,20.89614 10.51934,20.89614 l -1.93298,-13.04349 c 4.8147,8.87399 6.59825,11.49388 13.14927,18.84569 6.55103,-7.39097 8.33458,-10.01086 13.14928,-18.88485 z"
       id="path15-5" />
    <ellipse
       style="fill:#ffc900;fill-opacity:1;stroke:none;stroke-width:0.177848;stroke-dasharray:none;stroke-opacity:1"
       id="path16"
       cx="-36.793873"
       cy="88.054619"
       rx="24.666883"
       ry="23.219942" />
    <path
       style="fill:#000000;fill-opacity:1;stroke:none;stroke-width:0.0663955;stroke-dasharray:none;stroke-opacity:1"
       d="m -44.596026,102.00799 c -3.82151,-0.0802 -6.56235,-2.682005 -9.38802,-7.836762 6.20319,1.792127 6.6418,-2.201946 11.88698,-3.318269 4.12485,-0.877883 5.30322,2.894661 5.30322,2.894661 0,0 1.17836,-3.772544 5.30321,-2.894661 5.24519,1.116323 5.68379,5.110396 11.88698,3.318269 -2.82567,5.154757 -5.5665,7.756612 -9.38801,7.836762 -4.20027,0.0881 -7.12558,-3.269465 -7.80218,-4.447895 -0.6766,1.17843 -3.60192,4.535975 -7.80218,4.447895 z"
       id="path17" />
    <ellipse
       style="fill:#000000;fill-opacity:1;stroke:none;stroke-width:0.109098;stroke-dasharray:none;stroke-opacity:1"
       id="path18"
       cx="-28.467642"
       cy="81.804855"
       rx="4.145813"
       ry="4.1097622" />
    <ellipse
       style="fill:#000000;fill-opacity:1;stroke:none;stroke-width:0.173257;stroke-dasharray:none;stroke-opacity:1"
       id="path18-6"
       cx="78.866898"
       cy="-49.308525"
       rx="7.5311384"
       ry="5.7057972"
       transform="rotate(150.43147)" />
    <rect
       style="fill:#000000;fill-opacity:1;stroke:none;stroke-width:0.110013;stroke-dasharray:none;stroke-opacity:1"
       id="rect19"
       width="50.884335"
       height="3.7625592"
       x="-103.99036"
       y="43.37241"
       transform="rotate(-32.385507)" />
    <text
       xml:space="preserve"
       style="font-style:normal;font-variant:normal;font-weight:bold;font-stretch:normal;font-size:66.9035px;line-height:0;font-family:'Century Gothic';-inkscape-font-specification:'Century Gothic Bold';text-align:start;letter-spacing:0px;word-spacing:-8.61646px;writing-mode:lr-tb;direction:ltr;text-anchor:start;fill:#000000;fill-opacity:1;stroke:none;stroke-width:5.58406;stroke-dasharray:none;stroke-opacity:1"
       x="14.144176"
       y="117.54291"
       id="text20"><tspan
         id="tspan20"
         style="letter-spacing:0px;word-spacing:-8.61646px;stroke-width:5.58408"
         x="14.144176"
         y="117.54291"
         dx="0">parking pirates</tspan></text>
  </g>
</svg>
