<?xml version="1.0" encoding="UTF-8" standalone="no"?>
<!-- Created with Inkscape (http://www.inkscape.org/) -->

<svg
   width="2176.1289"
   height="378.60919"
   viewBox="0 0 575.76743 100.17368"
   version="1.1"
   id="svg1"
   xmlns:xlink="http://www.w3.org/1999/xlink"
   xmlns="http://www.w3.org/2000/svg"
   xmlns:svg="http://www.w3.org/2000/svg">
  <defs
     id="defs1">
    <linearGradient
       id="swatch16">
      <stop
         style="stop-color:#ffc900;stop-opacity:1;"
         offset="0"
         id="stop16" />
    </linearGradient>
    <linearGradient
       xlink:href="#swatch16"
       id="linearGradient21"
       gradientUnits="userSpaceOnUse"
       gradientTransform="matrix(0.5,0,0,0.53584305,502.1427,44.7079)"
       x1="25.68004"
       y1="102.09042"
       x2="161.64359"
       y2="102.09042" />
  </defs>
  <g
     id="layer1"
     transform="translate(-506.84863,-49.325478)">
    <path
       style="color:#000000;font-style:normal;font-variant:normal;font-weight:normal;font-stretch:normal;font-size:medium;line-height:normal;font-family:sans-serif;font-variant-ligatures:normal;font-variant-position:normal;font-variant-caps:normal;font-variant-numeric:normal;font-variant-alternates:normal;font-variant-east-asian:normal;font-feature-settings:normal;font-variation-settings:normal;text-indent:0;text-align:start;text-decoration-line:none;text-decoration-style:solid;text-decoration-color:#000000;letter-spacing:normal;word-spacing:normal;text-transform:none;writing-mode:lr-tb;direction:ltr;text-orientation:mixed;dominant-baseline:auto;baseline-shift:baseline;text-anchor:start;white-space:normal;shape-padding:0;shape-margin:0;inline-size:0;clip-rule:nonzero;display:inline;overflow:visible;visibility:visible;isolation:auto;mix-blend-mode:normal;color-interpolation:sRGB;color-interpolation-filters:linearRGB;solid-color:#000000;solid-opacity:1;vector-effect:none;fill:url(#linearGradient21);fill-rule:nonzero;stroke:none;stroke-width:0.303578;stroke-linecap:butt;stroke-linejoin:miter;stroke-miterlimit:4;stroke-dasharray:none;stroke-dashoffset:0;stroke-opacity:1;-inkscape-stroke:none;color-rendering:auto;image-rendering:auto;shape-rendering:auto;text-rendering:auto;enable-background:accumulate;stop-color:#000000"
       d="m 562.12288,124.8202 -1.93298,13.04349 c 0,0 8.01087,-13.05486 10.51934,-20.89614 0,0 -1.74463,15.46992 -1.65884,15.32541 8.37274,-13.42431 13.85311,-30.16711 13.91406,-45.471494 0.0609,-15.304382 -13.97309,-31.62759 -34.08209,-31.701622 -20.109,-0.07403 -34.06982,16.072713 -33.89962,31.740791 0.17019,15.668085 5.54132,32.047175 13.91406,45.471485 0.0858,0.14452 -1.65884,-15.32541 -1.65884,-15.32541 2.50847,7.84128 10.51934,20.89614 10.51934,20.89614 l -1.93298,-13.04349 c 4.8147,8.87399 6.59825,11.49388 13.14927,18.84569 6.55103,-7.39097 8.33457,-10.01086 13.14928,-18.88485 z"
       id="path15-5-1" />
    <ellipse
       style="fill:#000000;fill-opacity:1;stroke:none;stroke-width:0.177848;stroke-dasharray:none;stroke-opacity:1"
       id="path16-6"
       cx="548.97363"
       cy="88.054619"
       rx="24.666883"
       ry="23.219942" />
    <path
       style="fill:#ffc900;fill-opacity:1;stroke:none;stroke-width:0.0663955;stroke-dasharray:none;stroke-opacity:1"
       d="m 541.17142,102.00799 c -3.82151,-0.0802 -6.56234,-2.682005 -9.38801,-7.836762 6.20319,1.792127 6.6418,-2.201946 11.88698,-3.318269 4.12485,-0.877883 5.30322,2.894661 5.30322,2.894661 0,0 1.17836,-3.772544 5.3032,-2.894661 5.24519,1.116323 5.6838,5.110396 11.88699,3.318269 -2.82567,5.154757 -5.56651,7.756612 -9.38801,7.836762 -4.20027,0.0881 -7.12559,-3.269465 -7.80218,-4.447895 -0.67661,1.17843 -3.60192,4.535975 -7.80219,4.447895 z"
       id="path17-8" />
    <ellipse
       style="fill:#ffc900;fill-opacity:1;stroke:none;stroke-width:0.109098;stroke-dasharray:none;stroke-opacity:1"
       id="path18-5"
       cx="557.2998"
       cy="81.804855"
       rx="4.145813"
       ry="4.1097622" />
    <ellipse
       style="fill:#ffc900;fill-opacity:1;stroke:none;stroke-width:0.173257;stroke-dasharray:none;stroke-opacity:1"
       id="path18-6-7"
       cx="-430.6138"
       cy="-338.3638"
       rx="7.5311384"
       ry="5.7057972"
       transform="rotate(150.43147)" />
    <rect
       style="fill:#ffc900;fill-opacity:1;stroke:none;stroke-width:0.110013;stroke-dasharray:none;stroke-opacity:1"
       id="rect19-6"
       width="50.884335"
       height="3.7625592"
       x="390.66885"
       y="357.11719"
       transform="rotate(-32.385507)" />
    <path
       style="-inkscape-font-specification:'Century Gothic Bold';fill:#ffc900;stroke-width:5.58408"
       d="m 613.27272,82.000422 v 3.920127 q 2.41741,-2.417412 5.22684,-3.626118 2.80942,-1.208706 6.01086,-1.208706 6.95822,0 11.82572,5.259504 4.86749,5.259504 4.86749,13.491771 0,7.93826 -5.03083,13.29576 -5.03083,5.32484 -11.92372,5.32484 -3.07077,0 -5.71685,-1.07803 -2.64609,-1.1107 -5.25951,-3.59345 v 16.75854 h -8.85295 V 82.000422 Z m 9.37564,7.31757 q -4.21414,0 -6.99089,2.87476 -2.77676,2.87476 -2.77676,7.513577 0,4.736821 2.77676,7.676911 2.77675,2.90743 6.99089,2.90743 4.08346,0 6.86022,-2.97276 2.80943,-2.97276 2.80943,-7.578913 0,-4.573482 -2.74409,-7.480909 -2.74409,-2.940096 -6.92556,-2.940096 z m 52.20303,-7.31757 h 8.88562 v 35.542488 h -8.88562 v -3.75679 q -2.61342,2.48275 -5.25951,3.59345 -2.61342,1.07803 -5.68418,1.07803 -6.89289,0 -11.92372,-5.32484 -5.03083,-5.3575 -5.03083,-13.29576 0,-8.232267 4.86749,-13.491771 4.86749,-5.259504 11.82572,-5.259504 3.20143,0 6.01086,1.208706 2.80942,1.208706 5.19417,3.626118 z m -9.37564,7.31757 q -4.1488,0 -6.89289,2.940096 -2.74409,2.907427 -2.74409,7.480909 0,4.606153 2.77676,7.578913 2.80942,2.97276 6.89289,2.97276 4.21413,0 6.99089,-2.90743 2.77676,-2.94009 2.77676,-7.676911 0,-4.638817 -2.77676,-7.513577 -2.77676,-2.87476 -7.02356,-2.87476 z m 25.18682,-7.31757 h 7.64425 V 86.4759 q 1.24137,-2.646086 3.29944,-4.01813 2.05806,-1.372045 4.50814,-1.372045 1.73139,0 3.62612,0.914697 l -2.77676,7.676915 q -1.56805,-0.784025 -2.58075,-0.784025 -2.05806,0 -3.49544,2.548082 -1.40472,2.548083 -1.40472,9.996326 l 0.0327,1.73139 v 14.3738 H 690.6626 Z M 714.216,68.279976 h 8.91829 v 28.388255 l 13.13242,-14.667809 h 11.17237 l -15.2885,17.052553 17.15056,18.489935 h -11.07436 l -15.09249,-16.36653 v 16.36653 H 714.216 Z m 42.23936,-0.914696 q 2.35208,0 4.01813,1.698722 1.69872,1.698722 1.69872,4.116133 0,2.384744 -1.66605,4.083466 -1.66606,1.666054 -3.98546,1.666054 -2.38475,0 -4.08347,-1.698722 -1.66605,-1.731389 -1.66605,-4.181468 0,-2.352077 1.66605,-4.018131 1.66605,-1.666054 4.01813,-1.666054 z m -4.47548,14.635142 h 8.95096 v 35.542488 h -8.95096 z m 17.01989,0 h 8.88562 v 3.626117 q 3.0381,-2.548083 5.48818,-3.528114 2.48275,-1.0127 5.0635,-1.0127 5.29217,0 8.98362,3.691453 3.10344,3.136102 3.10344,9.277635 v 23.488097 h -8.82029 V 101.9604 q 0,-6.370204 -0.58802,-8.460939 -0.55535,-2.090734 -1.99273,-3.168769 -1.40471,-1.110703 -3.49545,-1.110703 -2.71142,0 -4.67148,1.829393 -1.9274,1.796725 -2.67876,4.998162 -0.39201,1.666054 -0.39201,7.219566 v 14.2758 h -8.88562 z m 66.41349,0 h 8.88562 v 30.446318 q 0,9.01629 -3.62612,13.2631 -4.86749,5.74952 -14.66781,5.74952 -5.22683,0 -8.78762,-1.30671 -3.56078,-1.30671 -6.01086,-3.85479 -2.45008,-2.51542 -3.62612,-6.14153 h 9.83299 q 1.30671,1.50271 3.36478,2.25407 2.05806,0.78402 4.86749,0.78402 3.59345,0 5.78218,-1.1107 2.18874,-1.1107 3.07077,-2.87476 0.9147,-1.76406 0.9147,-6.0762 -2.35208,2.35208 -4.93283,3.39745 -2.58075,1.0127 -5.84752,1.0127 -7.15423,0 -12.08706,-5.1615 -4.93283,-5.1615 -4.93283,-13.067094 0,-8.460941 5.22684,-13.589774 4.73682,-4.638817 11.30303,-4.638817 3.07077,0 5.78219,1.143371 2.74409,1.110702 5.48818,3.691453 z m -9.24497,7.415573 q -4.21414,0 -6.95823,2.842093 -2.74408,2.809424 -2.74408,7.088896 0,4.442806 2.80942,7.284906 2.80942,2.84209 7.05623,2.84209 4.1488,0 6.82755,-2.77676 2.71143,-2.77675 2.71143,-7.2849 0,-4.442811 -2.71143,-7.219568 -2.71142,-2.776757 -6.99089,-2.776757 z m 46.10199,-7.415573 v 3.920127 q 2.41741,-2.417412 5.22684,-3.626118 2.80942,-1.208706 6.01086,-1.208706 6.95822,0 11.82571,5.259504 4.8675,5.259504 4.8675,13.491771 0,7.93826 -5.03083,13.29576 -5.03083,5.32484 -11.92372,5.32484 -3.07077,0 -5.71686,-1.07803 -2.64608,-1.1107 -5.2595,-3.59345 v 16.75854 h -8.85295 V 82.000422 Z m 9.37564,7.31757 q -4.21414,0 -6.9909,2.87476 -2.77675,2.87476 -2.77675,7.513577 0,4.736821 2.77675,7.676911 2.77676,2.90743 6.9909,2.90743 4.08346,0 6.86022,-2.97276 2.80942,-2.97276 2.80942,-7.578913 0,-4.573482 -2.74408,-7.480909 -2.74409,-2.940096 -6.92556,-2.940096 z M 911.07955,67.36528 q 2.35208,0 4.01813,1.698722 1.69872,1.698722 1.69872,4.116133 0,2.384744 -1.66605,4.083466 -1.66605,1.666054 -3.98546,1.666054 -2.38475,0 -4.08347,-1.698722 -1.66605,-1.731389 -1.66605,-4.181468 0,-2.352077 1.66605,-4.018131 1.66605,-1.666054 4.01813,-1.666054 z m -4.47548,14.635142 h 8.95096 v 35.542488 h -8.95096 z m 14.92913,0 h 7.64424 V 86.4759 q 1.24138,-2.646086 3.29944,-4.01813 2.05807,-1.372045 4.50815,-1.372045 1.73139,0 3.62612,0.914697 l -2.77676,7.676915 q -1.56805,-0.784025 -2.58075,-0.784025 -2.05807,0 -3.49545,2.548082 -1.40471,2.548083 -1.40471,9.996326 l 0.0327,1.73139 v 14.3738 h -8.85295 z m 49.75295,0 h 8.88562 v 35.542488 h -8.88562 v -3.75679 q -2.61342,2.48275 -5.2595,3.59345 -2.61342,1.07803 -5.68419,1.07803 -6.89289,0 -11.92372,-5.32484 -5.03083,-5.3575 -5.03083,-13.29576 0,-8.232267 4.86749,-13.491771 4.8675,-5.259504 11.82572,-5.259504 3.20144,0 6.01086,1.208706 2.80943,1.208706 5.19417,3.626118 z m -9.37564,7.31757 q -4.1488,0 -6.89289,2.940096 -2.74409,2.907427 -2.74409,7.480909 0,4.606153 2.77676,7.578913 2.80943,2.97276 6.89289,2.97276 4.21414,0 6.99089,-2.90743 2.77676,-2.94009 2.77676,-7.676911 0,-4.638817 -2.77676,-7.513577 -2.77675,-2.87476 -7.02356,-2.87476 z m 28.3556,-20.417329 h 8.88562 v 13.099759 h 5.29217 v 7.676915 h -5.29217 v 27.865573 h -8.88562 V 89.677337 h -4.57348 v -7.676915 h 4.57348 z m 54.58779,33.451747 h -28.6496 q 0.6207,3.78946 3.2994,6.04353 2.7114,2.22141 6.8929,2.22141 4.9982,0 8.5916,-3.49545 l 7.5136,3.52812 q -2.8094,3.98546 -6.7295,5.91286 -3.9202,1.89472 -9.3103,1.89472 -8.363,0 -13.6225,-5.2595 -5.2595,-5.29217 -5.2595,-13.230429 0,-8.134264 5.2268,-13.491771 5.2595,-5.390175 13.1651,-5.390175 8.3956,0 13.6551,5.390175 5.2596,5.357507 5.2596,14.17779 z m -8.951,-7.023556 q -0.882,-2.972763 -3.4954,-4.834824 -2.5808,-1.86206 -6.0109,-1.86206 -3.7241,0 -6.5335,2.090734 -1.7641,1.306709 -3.2668,4.60615 z m 37.9273,-8.362938 -5.5209,5.520846 q -3.3648,-3.332108 -6.1089,-3.332108 -1.5027,0 -2.352,0.653354 -0.8494,0.620687 -0.8494,1.568051 0,0.71869 0.5227,1.339377 0.5553,0.588019 2.6787,1.633386 l 3.2668,1.633386 q 5.1615,2.548083 7.0889,5.194172 1.9274,2.64608 1.9274,6.20686 0,4.73683 -3.4954,7.90559 -3.4628,3.16877 -9.3103,3.16877 -7.775,0 -12.4138,-6.07619 l 5.4882,-5.9782 q 1.5681,1.8294 3.6588,2.97277 2.1234,1.1107 3.7568,1.1107 1.764,0 2.8421,-0.84936 1.078,-0.84936 1.078,-1.96007 0,-2.05806 -3.8875,-4.01813 l -3.0054,-1.50271 q -8.6243,-4.344809 -8.6243,-10.878354 0,-4.214137 3.2341,-7.1869 3.2668,-3.005431 8.3303,-3.005431 3.4628,0 6.5009,1.535383 3.0708,1.502716 5.1942,4.344808 z"
       id="text20-1"
       aria-label="parking pirates" />
  </g>
</svg>
