<?xml version="1.0" encoding="UTF-8" standalone="no"?>
<!-- Created with Inkscape (http://www.inkscape.org/) -->

<svg
   width="324.25317mm"
   height="427.59192mm"
   viewBox="0 0 324.25318 427.5919"
   version="1.1"
   id="svg1"
   xmlns="http://www.w3.org/2000/svg"
   xmlns:svg="http://www.w3.org/2000/svg">
  <defs
     id="defs1">
    <linearGradient
       id="swatch16">
      <stop
         style="stop-color:#ffc900;stop-opacity:1;"
         offset="0"
         id="stop16" />
    </linearGradient>
  </defs>
  <g
     id="layer1"
     transform="translate(-1425.6094,-312.64889)">
    <path
       style="color:#000000;font-style:normal;font-variant:normal;font-weight:normal;font-stretch:normal;font-size:medium;line-height:normal;font-family:sans-serif;font-variant-ligatures:normal;font-variant-position:normal;font-variant-caps:normal;font-variant-numeric:normal;font-variant-alternates:normal;font-variant-east-asian:normal;font-feature-settings:normal;font-variation-settings:normal;text-indent:0;text-align:start;text-decoration-line:none;text-decoration-style:solid;text-decoration-color:#000000;letter-spacing:normal;word-spacing:normal;text-transform:none;writing-mode:lr-tb;direction:ltr;text-orientation:mixed;dominant-baseline:auto;baseline-shift:baseline;text-anchor:start;white-space:normal;shape-padding:0;shape-margin:0;inline-size:0;clip-rule:nonzero;display:inline;overflow:visible;visibility:visible;isolation:auto;mix-blend-mode:normal;color-interpolation:sRGB;color-interpolation-filters:linearRGB;solid-color:#000000;solid-opacity:1;vector-effect:none;fill:#000000;fill-rule:nonzero;stroke:none;stroke-width:0.86718;stroke-linecap:butt;stroke-linejoin:miter;stroke-miterlimit:4;stroke-dasharray:none;stroke-dashoffset:0;stroke-opacity:1;-inkscape-stroke:none;color-rendering:auto;image-rendering:auto;shape-rendering:auto;text-rendering:auto;enable-background:accumulate;stop-color:#000000"
       d="m 1625.2991,514.31761 -5.5216,37.25914 c 0,0 22.8833,-37.29162 30.0488,-59.69048 0,0 -4.9836,44.19032 -4.7385,43.77751 23.917,-38.34696 39.5718,-86.17329 39.7459,-129.89073 0.174,-43.71745 -39.9146,-90.34521 -97.3565,-90.55668 -57.442,-0.21138 -97.3215,45.9122 -96.8354,90.66857 0.4862,44.75636 15.829,91.54375 39.746,129.89071 0.2451,0.41283 -4.7386,-43.77752 -4.7386,-43.77752 7.1656,22.39886 30.0489,59.69048 30.0489,59.69048 l -5.5217,-37.25913 c 13.7534,25.34883 18.8482,32.83263 37.5613,53.83331 18.7133,-21.11255 23.808,-28.59635 37.5614,-53.94518 z"
       id="path15-5-8-4-1" />
    <ellipse
       style="fill:#ffffff;fill-opacity:1;stroke:none;stroke-width:0.508028;stroke-dasharray:none;stroke-opacity:1"
       id="path16-65-6-8"
       cx="1587.7377"
       cy="409.29559"
       rx="70.461723"
       ry="66.328491" />
    <path
       style="fill:#000000;fill-opacity:1;stroke:none;stroke-width:0.189661;stroke-dasharray:none;stroke-opacity:1"
       d="m 1565.4506,449.15382 c -10.9163,-0.2291 -18.7455,-7.66122 -26.8172,-22.38595 17.7196,5.11927 18.9725,-6.28991 33.9556,-9.47875 11.7827,-2.50769 15.1488,8.26869 15.1488,8.26869 0,0 3.366,-10.77638 15.1488,-8.26869 14.983,3.18884 16.2359,14.59802 33.9555,9.47875 -8.0716,14.72473 -15.9009,22.15703 -26.8171,22.38595 -11.9982,0.25166 -20.3545,-9.33931 -22.2872,-12.70554 -1.9327,3.36623 -10.289,12.95715 -22.2872,12.70554 z"
       id="path17-0-0-9" />
    <ellipse
       style="fill:#000000;fill-opacity:1;stroke:none;stroke-width:0.311641;stroke-dasharray:none;stroke-opacity:1"
       id="path18-2-7-8"
       cx="1611.5219"
       cy="391.44299"
       rx="11.842646"
       ry="11.739665" />
    <ellipse
       style="fill:#000000;fill-opacity:1;stroke:none;stroke-width:0.494914;stroke-dasharray:none;stroke-opacity:1"
       id="path18-6-8-1-4"
       cx="-1169.2383"
       cy="-1113.4263"
       rx="21.512934"
       ry="16.298788"
       transform="rotate(150.43147)" />
    <rect
       style="fill:#000000;fill-opacity:1;stroke:none;stroke-width:0.314256;stroke-dasharray:none;stroke-opacity:1"
       id="rect19-60-7-1"
       width="145.35271"
       height="10.747869"
       x="1047.9894"
       y="1163.829"
       transform="rotate(-32.385505)" />
    <text
       xml:space="preserve"
       style="font-style:normal;font-variant:normal;font-weight:bold;font-stretch:normal;font-size:86.5123px;line-height:0;font-family:'Century Gothic';-inkscape-font-specification:'Century Gothic Bold';text-align:start;letter-spacing:0px;word-spacing:-11.1419px;writing-mode:lr-tb;direction:ltr;text-anchor:start;fill:#000000;fill-opacity:1;stroke:none;stroke-width:7.2207;stroke-dasharray:none;stroke-opacity:1"
       x="1426.8137"
       y="645.82104"
       id="text20-33-4"><tspan
         id="tspan20-5-3"
         style="letter-spacing:0px;word-spacing:-11.1419px;stroke-width:7.22072"
         x="1426.8137"
         y="645.82104"
         dx="0">parking</tspan></text>
    <text
       xml:space="preserve"
       style="font-style:normal;font-variant:normal;font-weight:bold;font-stretch:normal;font-size:86.5123px;line-height:0;font-family:'Century Gothic';-inkscape-font-specification:'Century Gothic Bold';text-align:start;letter-spacing:0px;word-spacing:-11.1419px;writing-mode:lr-tb;direction:ltr;text-anchor:start;fill:#000000;fill-opacity:1;stroke:none;stroke-width:7.2207;stroke-dasharray:none;stroke-opacity:1"
       x="1445.4426"
       y="720.86157"
       id="text20-33-1-9"><tspan
         id="tspan20-5-8-8"
         style="letter-spacing:0px;word-spacing:-11.1419px;stroke-width:7.22072"
         x="1445.4426"
         y="720.86157">pirates</tspan></text>
  </g>
</svg>
