<?xml version="1.0" encoding="UTF-8" standalone="no"?>
<!-- Created with Inkscape (http://www.inkscape.org/) -->

<svg
   width="324.25317mm"
   height="427.59192mm"
   viewBox="0 0 324.25318 427.5919"
   version="1.1"
   id="svg1"
   xmlns="http://www.w3.org/2000/svg"
   xmlns:svg="http://www.w3.org/2000/svg">
  <defs
     id="defs1">
    <linearGradient
       id="swatch16">
      <stop
         style="stop-color:#ffc900;stop-opacity:1;"
         offset="0"
         id="stop16" />
    </linearGradient>
  </defs>
  <g
     id="layer1"
     transform="translate(-717.15971,-310.129)">
    <g
       id="g33"
       transform="translate(-3.1498455,0.77766498)">
      <g
         id="g32"
         transform="matrix(1.2930905,0,0,1.2930905,-253.73142,-189.17173)">
        <path
           style="color:#000000;font-style:normal;font-variant:normal;font-weight:normal;font-stretch:normal;font-size:medium;line-height:normal;font-family:sans-serif;font-variant-ligatures:normal;font-variant-position:normal;font-variant-caps:normal;font-variant-numeric:normal;font-variant-alternates:normal;font-variant-east-asian:normal;font-feature-settings:normal;font-variation-settings:normal;text-indent:0;text-align:start;text-decoration-line:none;text-decoration-style:solid;text-decoration-color:#000000;letter-spacing:normal;word-spacing:normal;text-transform:none;writing-mode:lr-tb;direction:ltr;text-orientation:mixed;dominant-baseline:auto;baseline-shift:baseline;text-anchor:start;white-space:normal;shape-padding:0;shape-margin:0;inline-size:0;clip-rule:nonzero;display:inline;overflow:visible;visibility:visible;isolation:auto;mix-blend-mode:normal;color-interpolation:sRGB;color-interpolation-filters:linearRGB;solid-color:#000000;solid-opacity:1;vector-effect:none;fill:#000000;fill-rule:nonzero;stroke:none;stroke-width:0.670626;stroke-linecap:butt;stroke-linejoin:miter;stroke-miterlimit:4;stroke-dasharray:none;stroke-dashoffset:0;stroke-opacity:1;-inkscape-stroke:none;color-rendering:auto;image-rendering:auto;shape-rendering:auto;text-rendering:auto;enable-background:accumulate;stop-color:#000000"
           d="m 907.69417,541.48709 -4.27009,28.81402 c 0,0 17.6966,-28.83914 23.23799,-46.1611 0,0 -3.85401,34.17419 -3.6645,33.85495 18.496,-29.65528 30.60253,-66.64135 30.73718,-100.44984 0.13453,-33.8085 -30.86758,-69.86766 -75.28983,-70.0312 -44.42225,-0.16347 -75.2627,35.50579 -74.88674,70.11773 0.37596,34.61193 12.24118,70.79454 30.73718,100.44982 0.18953,0.31926 -3.6645,-33.85495 -3.6645,-33.85495 5.54139,17.32196 23.23799,46.1611 23.23799,46.1611 l -4.2701,-28.81402 c 10.63603,19.60329 14.57602,25.39082 29.0477,41.63151 14.47171,-16.3272 18.4117,-22.11473 29.04772,-41.71802 z"
           id="path15-5-8-4" />
        <ellipse
           style="fill:#ffc900;fill-opacity:1;stroke:none;stroke-width:0.392879;stroke-dasharray:none;stroke-opacity:1"
           id="path16-65-6"
           cx="878.64636"
           cy="460.26926"
           rx="54.490948"
           ry="51.294548" />
        <path
           style="fill:#000000;fill-opacity:1;stroke:none;stroke-width:0.146673;stroke-dasharray:none;stroke-opacity:1"
           d="m 861.41089,491.09325 c -8.442,-0.17717 -14.49671,-5.92473 -20.73882,-17.31197 13.7033,3.95894 14.67222,-4.86425 26.2592,-7.33031 9.1121,-1.9393 11.71521,6.39452 11.71521,6.39452 0,0 2.60308,-8.33382 11.71517,-6.39452 11.58701,2.46606 12.55591,11.28925 26.25921,7.33031 -6.24211,11.38724 -12.2968,17.13494 -20.7388,17.31197 -9.2787,0.19462 -15.74093,-7.22247 -17.23558,-9.82571 -1.49466,2.60324 -7.95691,10.02029 -17.23559,9.82571 z"
           id="path17-0-0" />
        <ellipse
           style="fill:#000000;fill-opacity:1;stroke:none;stroke-width:0.241005;stroke-dasharray:none;stroke-opacity:1"
           id="path18-2-7"
           cx="897.03967"
           cy="446.4631"
           rx="9.1584044"
           ry="9.0787649" />
        <ellipse
           style="fill:#000000;fill-opacity:1;stroke:none;stroke-width:0.382737;stroke-dasharray:none;stroke-opacity:1"
           id="path18-6-8-1"
           cx="-529.55078"
           cy="-813.75623"
           rx="16.636835"
           ry="12.604523"
           transform="rotate(150.43147)" />
        <rect
           style="fill:#000000;fill-opacity:1;stroke:none;stroke-width:0.243027;stroke-dasharray:none;stroke-opacity:1"
           id="rect19-60-7"
           width="112.40722"
           height="8.3117685"
           x="438.56149"
           y="834.37854"
           transform="rotate(-32.385506)" />
      </g>
      <text
         xml:space="preserve"
         style="font-style:normal;font-variant:normal;font-weight:bold;font-stretch:normal;font-size:86.5123px;line-height:0;font-family:'Century Gothic';-inkscape-font-specification:'Century Gothic Bold';text-align:start;letter-spacing:0px;word-spacing:-11.1419px;writing-mode:lr-tb;direction:ltr;text-anchor:start;fill:#000000;fill-opacity:1;stroke:none;stroke-width:7.2207;stroke-dasharray:none;stroke-opacity:1"
         x="721.51398"
         y="642.5235"
         id="text20-33"><tspan
           id="tspan20-5"
           style="letter-spacing:0px;word-spacing:-11.1419px;stroke-width:7.22072"
           x="721.51398"
           y="642.5235"
           dx="0">parking</tspan></text>
      <text
         xml:space="preserve"
         style="font-style:normal;font-variant:normal;font-weight:bold;font-stretch:normal;font-size:86.5123px;line-height:0;font-family:'Century Gothic';-inkscape-font-specification:'Century Gothic Bold';text-align:start;letter-spacing:0px;word-spacing:-11.1419px;writing-mode:lr-tb;direction:ltr;text-anchor:start;fill:#000000;fill-opacity:1;stroke:none;stroke-width:7.2207;stroke-dasharray:none;stroke-opacity:1"
         x="740.14282"
         y="717.56403"
         id="text20-33-1"><tspan
           id="tspan20-5-8"
           style="letter-spacing:0px;word-spacing:-11.1419px;stroke-width:7.22072"
           x="740.14282"
           y="717.56403">pirates</tspan></text>
    </g>
  </g>
</svg>
