<?xml version="1.0" encoding="UTF-8" standalone="no"?>
<!-- Created with Inkscape (http://www.inkscape.org/) -->

<svg
   width="575.76746mm"
   height="100.17368mm"
   viewBox="0 0 575.76745 100.17368"
   version="1.1"
   id="svg1"
   xmlns="http://www.w3.org/2000/svg"
   xmlns:svg="http://www.w3.org/2000/svg">
  <defs
     id="defs1">
    <linearGradient
       id="swatch16">
      <stop
         style="stop-color:#ffc900;stop-opacity:1;"
         offset="0"
         id="stop16" />
    </linearGradient>
  </defs>
  <g
     id="layer1"
     transform="translate(78.165164,-164.90662)">
    <path
       style="color:#000000;font-style:normal;font-variant:normal;font-weight:normal;font-stretch:normal;font-size:medium;line-height:normal;font-family:sans-serif;font-variant-ligatures:normal;font-variant-position:normal;font-variant-caps:normal;font-variant-numeric:normal;font-variant-alternates:normal;font-variant-east-asian:normal;font-feature-settings:normal;font-variation-settings:normal;text-indent:0;text-align:start;text-decoration-line:none;text-decoration-style:solid;text-decoration-color:#000000;letter-spacing:normal;word-spacing:normal;text-transform:none;writing-mode:lr-tb;direction:ltr;text-orientation:mixed;dominant-baseline:auto;baseline-shift:baseline;text-anchor:start;white-space:normal;shape-padding:0;shape-margin:0;inline-size:0;clip-rule:nonzero;display:inline;overflow:visible;visibility:visible;isolation:auto;mix-blend-mode:normal;color-interpolation:sRGB;color-interpolation-filters:linearRGB;solid-color:#000000;solid-opacity:1;vector-effect:none;fill:#000000;fill-rule:nonzero;stroke:none;stroke-width:0.303578;stroke-linecap:butt;stroke-linejoin:miter;stroke-miterlimit:4;stroke-dasharray:none;stroke-dashoffset:0;stroke-opacity:1;-inkscape-stroke:none;color-rendering:auto;image-rendering:auto;shape-rendering:auto;text-rendering:auto;enable-background:accumulate;stop-color:#000000"
       d="m -22.890934,240.40134 -1.93298,13.04349 c 0,0 8.01087,-13.05486 10.51934,-20.89614 0,0 -1.74464,15.46992 -1.65885,15.32541 8.3727401,-13.42431 13.8531201,-30.16711 13.9140701,-45.47149 0.0609,-15.30439 -13.9731001,-31.62759 -34.0821001,-31.70163 -20.109,-0.074 -34.06981,16.07272 -33.89961,31.74079 0.17019,15.66809 5.54132,32.04718 13.91406,45.47149 0.0858,0.14452 -1.65884,-15.32541 -1.65884,-15.32541 2.50846,7.84128 10.51933,20.89614 10.51933,20.89614 l -1.93298,-13.04349 c 4.81471,8.87399 6.59826,11.49388 13.14928,18.84569 6.55102,-7.39097 8.33457,-10.01086 13.14928,-18.88485 z"
       id="path15-5-9" />
    <ellipse
       style="fill:#ffffff;fill-opacity:1;stroke:none;stroke-width:0.177848;stroke-dasharray:none;stroke-opacity:1"
       id="path16-5"
       cx="-36.040215"
       cy="203.63577"
       rx="24.666883"
       ry="23.219942" />
    <path
       style="fill:#000000;fill-opacity:1;stroke:none;stroke-width:0.0663955;stroke-dasharray:none;stroke-opacity:1"
       d="m -43.842394,217.58913 c -3.82151,-0.0802 -6.56234,-2.68201 -9.38801,-7.83676 6.20318,1.79212 6.64179,-2.20195 11.88698,-3.31827 4.12484,-0.87788 5.30321,2.89466 5.30321,2.89466 0,0 1.17837,-3.77254 5.30321,-2.89466 5.24519,1.11632 5.6838,5.11039 11.88698,3.31827 -2.82567,5.15475 -5.5665,7.75661 -9.388,7.83676 -4.20027,0.0881 -7.12559,-3.26947 -7.80219,-4.4479 -0.6766,1.17843 -3.60192,4.53598 -7.80218,4.4479 z"
       id="path17-4" />
    <ellipse
       style="fill:#000000;fill-opacity:1;stroke:none;stroke-width:0.109098;stroke-dasharray:none;stroke-opacity:1"
       id="path18-3"
       cx="-27.714027"
       cy="197.386"
       rx="4.145813"
       ry="4.1097622" />
    <ellipse
       style="fill:#000000;fill-opacity:1;stroke:none;stroke-width:0.173257;stroke-dasharray:none;stroke-opacity:1"
       id="path18-6-1"
       cx="135.24655"
       cy="-150.20897"
       rx="7.5311384"
       ry="5.7057972"
       transform="rotate(150.43147)" />
    <rect
       style="fill:#000000;fill-opacity:1;stroke:none;stroke-width:0.110013;stroke-dasharray:none;stroke-opacity:1"
       id="rect19-2"
       width="50.884335"
       height="3.7625592"
       x="-165.26074"
       y="141.38011"
       transform="rotate(-32.385507)" />
    <text
       xml:space="preserve"
       style="font-style:normal;font-variant:normal;font-weight:bold;font-stretch:normal;font-size:66.9035px;line-height:0;font-family:'Century Gothic';-inkscape-font-specification:'Century Gothic Bold';text-align:start;letter-spacing:0px;word-spacing:-8.61646px;writing-mode:lr-tb;direction:ltr;text-anchor:start;fill:#000000;fill-opacity:1;stroke:none;stroke-width:5.58406;stroke-dasharray:none;stroke-opacity:1"
       x="14.897788"
       y="233.12405"
       id="text20-3"><tspan
         id="tspan20-3"
         style="letter-spacing:0px;word-spacing:-8.61646px;stroke-width:5.58408"
         x="14.897788"
         y="233.12405"
         dx="0">parking pirates</tspan></text>
  </g>
</svg>
